<svg width="40" height="40" viewBox="0 0 40 40" fill="none" xmlns="http://www.w3.org/2000/svg">
<rect x="0.5" y="0.5" width="39" height="39" rx="11.5" fill="#EFF6FF"/>
<rect x="0.5" y="0.5" width="39" height="39" rx="11.5" stroke="#2563EB"/>
<path d="M20 15.2109V26.0442M20 15.2109C19.0267 14.5642 17.705 14.1667 16.25 14.1667C14.795 14.1667 13.4733 14.5642 12.5 15.2109V26.0442C13.4733 25.3976 14.795 25.0001 16.25 25.0001C17.705 25.0001 19.0267 25.3976 20 26.0442M20 15.2109C20.9733 14.5642 22.295 14.1667 23.75 14.1667C25.2058 14.1667 26.5267 14.5642 27.5 15.2109V26.0442C26.5267 25.3976 25.2058 25.0001 23.75 25.0001C22.295 25.0001 20.9733 25.3976 20 26.0442" stroke="#2563EB" stroke-width="1.66667" stroke-linecap="round" stroke-linejoin="round"/>
</svg>
